HIERARCHY
ROOT Hips
{
	OFFSET	0.00	0.00	0.00
	CHANNELS 6 Xposition Yposition Zposition Zrotation Xrotation Yrotation
	JOINT LeftUpLeg
	{
		OFFSET	 0.126116	-0.014019	-0.065224
		CHANNELS 3 Zrotation Xrotation Yrotation
		JOINT LeftLeg
		{
			OFFSET	 0.000000	 0.000000	 0.569914
			CHANNELS 3 Zrotation Xrotation Yrotation
			JOINT LeftFoot
			{
				OFFSET	 0.000000	 0.000000	 0.544423
				CHANNELS 3 Zrotation Xrotation Yrotation
				JOINT LeftToeBase
				{
					OFFSET	 0.000000	 0.000000	 0.207117
					CHANNELS 3 Zrotation Xrotation Yrotation
					End Site
					{
						OFFSET	 0.000000	 0.000000	 0.207117
					}
				}
			}
		}
	}
	JOINT RightUpLeg
	{
		OFFSET	-0.124023	-0.008373	-0.065224
		CHANNELS 3 Zrotation Xrotation Yrotation
		JOINT RightLeg
		{
			OFFSET	 0.000000	 0.000000	 0.570047
			CHANNELS 3 Zrotation Xrotation Yrotation
			JOINT RightFoot
			{
				OFFSET	 0.000000	 0.000000	 0.544354
				CHANNELS 3 Zrotation Xrotation Yrotation
				JOINT RightToeBase
				{
					OFFSET	 0.000000	 0.000000	 0.207540
					CHANNELS 3 Zrotation Xrotation Yrotation
					End Site
					{
						OFFSET	 0.000000	 0.000000	 0.207540
					}
				}
			}
		}
	}
	JOINT Spine
	{
		OFFSET	 0.000184	-0.007763	 0.117403
		CHANNELS 3 Zrotation Xrotation Yrotation
		JOINT Spine1
		{
			OFFSET	 0.000000	 0.000000	 0.137269
			CHANNELS 3 Zrotation Xrotation Yrotation
			JOINT Spine2
			{
				OFFSET	 0.000000	 0.000000	 0.156879
				CHANNELS 3 Zrotation Xrotation Yrotation
				JOINT LeftShoulder
				{
					OFFSET	 0.080501	-0.002496	 0.160144
					CHANNELS 3 Zrotation Xrotation Yrotation
					JOINT LeftArm
					{
						OFFSET	 0.000000	 0.000000	 0.164363
						CHANNELS 3 Zrotation Xrotation Yrotation
						JOINT LeftForeArm
						{
							OFFSET	 0.000000	 0.000000	 0.364576
							CHANNELS 3 Zrotation Xrotation Yrotation
							JOINT LeftHand
							{
								OFFSET	 0.000000	 0.000000	 0.360812
								CHANNELS 3 Zrotation Xrotation Yrotation
								JOINT LeftHandIndex1
								{
									OFFSET	 0.000000	 0.000000	 0.086006
									CHANNELS 3 Zrotation Xrotation Yrotation
									JOINT LeftHandIndex2
									{
										OFFSET	 0.000000	 0.000000	 0.047237
										CHANNELS 3 Zrotation Xrotation Yrotation
										JOINT LeftHandIndex3
										{
											OFFSET	-0.004284	-0.000551	 0.038165
											CHANNELS 3 Zrotation Xrotation Yrotation
											End Site
											{
												OFFSET	-0.004284	-0.000551	 0.038165
											}
										}
									}
								}
							}
						}
					}
				}
				JOINT Neck
				{
					OFFSET	 0.000000	 0.000000	 0.176489
					CHANNELS 3 Zrotation Xrotation Yrotation
					JOINT Head
					{
						OFFSET	 0.000000	-0.001747	 0.077940
						CHANNELS 3 Zrotation Xrotation Yrotation
						End Site
						{
							OFFSET	 0.000000	-0.001747	 0.077940
						}
					}
				}
				JOINT RightShoulder
				{
					OFFSET	-0.080363	 0.000306	 0.159706
					CHANNELS 3 Zrotation Xrotation Yrotation
					JOINT RightArm
					{
						OFFSET	 0.000000	 0.000000	 0.164196
						CHANNELS 3 Zrotation Xrotation Yrotation
						JOINT RightForeArm
						{
							OFFSET	 0.000000	 0.000000	 0.365611
							CHANNELS 3 Zrotation Xrotation Yrotation
							JOINT RightHand
							{
								OFFSET	 0.000000	 0.000000	 0.360648
								CHANNELS 3 Zrotation Xrotation Yrotation
								JOINT RightHandIndex1
								{
									OFFSET	 0.000000	 0.000000	 0.069977
									CHANNELS 3 Zrotation Xrotation Yrotation
									JOINT RightHandIndex2
									{
										OFFSET	 0.000000	 0.000000	 0.052305
										CHANNELS 3 Zrotation Xrotation Yrotation
										JOINT RightHandIndex3
										{
											OFFSET	 0.009002	-0.000782	 0.042196
											CHANNELS 3 Zrotation Xrotation Yrotation
											End Site
											{
												OFFSET	 0.009002	-0.000782	 0.042196
											}
										}
									}
								}
							}
						}
					}
				}
			}
		}
	}
}
MOTION
Frames:    6
Frame Time: 0.03333334
-0.720576	-1.661650	 1.275118	-177.092100	 5.534113	-1.111369	-2.924585	-6.883431	 179.617800	-0.780743	-9.931087	 0.202045	-19.673820	 55.734530	 9.283031	-2.385833	 28.452760	 0.000004	-4.945607	-9.756274	-178.601900	-4.751418	-15.981340	 1.698973	 5.890770	 77.646320	 3.397650	 2.384659	 28.388700	-0.000001	 0.257638	 8.304186	 1.985368	 0.542039	-17.323510	-12.064620	-3.340940	-1.424625	 16.649440	-91.776250	 78.527360	-179.999900	-30.989700	-4.143154	-8.768886	-6.018110	-4.111213	-24.281950	 8.688824	-2.635046	-4.464019	-4.131196	 21.524690	 0.986298	-5.167839	 0.733520	 3.519257	-1.378229	 35.397820	-2.634230	 1.636386	 7.140876	 0.220801	-16.691350	-8.408083	-5.338284	 89.782100	 78.203900	 180.000000	 14.013180	 3.420769	-3.041055	-4.058766	-10.999600	 32.152110	-17.263600	 45.950110	 37.281020	 5.715225	 19.176060	-3.692089	 5.027514	 0.245388	-9.378011	-2.350882	 35.473990	 5.254307
-0.720472	-1.661518	 1.275101	-176.946600	 5.644534	-1.354084	-2.671864	-6.872661	 179.861200	-0.808651	-9.653623	 0.191770	-19.300300	 54.961780	 9.041681	-2.385833	 28.452760	 0.000004	-4.412821	-10.014360	-178.364300	-4.790351	-16.289050	 1.719739	 4.190437	 78.861840	 5.265724	 2.384659	 28.388700	-0.000001	 0.052066	 8.439865	 2.161650	 0.520504	-17.806040	-11.837390	-3.378343	-1.200042	 16.488750	-91.776140	 78.527420	 180.000000	-32.351430	-3.503380	-8.628020	-6.207658	-4.144928	-24.926570	 8.411314	-2.805657	-4.388757	-4.131196	 21.524690	 0.986298	-5.167839	 0.733520	 3.519257	-1.378229	 35.397820	-2.634230	 1.619264	 7.430927	 0.349775	-16.635740	-8.732419	-5.434015	 89.782140	 78.203890	 180.000000	 14.458830	 3.670458	-3.208699	-4.197644	-11.232760	 32.463570	-17.837700	 47.459440	 38.940110	 5.715225	 19.176060	-3.692089	 5.027514	 0.245388	-9.378011	-2.350882	 35.473990	 5.254307
-0.719182	-1.659948	 1.274680	-176.428000	 5.791543	-2.219839	-1.801027	-7.098029	-179.405900	 0.288008	-10.099640	 0.393026	-20.018940	 51.726250	 9.635232	-2.385833	 28.452760	 0.000004	-0.988273	-10.744860	-177.381100	-6.160683	-17.628500	 1.438341	 1.830889	 85.021420	 9.074395	 2.384659	 28.388700	-0.000001	-0.871286	 8.578791	 2.829396	 0.101070	-18.101490	-11.305400	-3.329916	-0.981488	 15.832630	-91.776130	 78.527400	 179.999900	-34.502880	-1.015930	-5.217753	-7.545035	-4.719895	-31.999830	 7.247033	-3.544886	-4.026992	-4.131196	 21.524690	 0.986298	-5.167839	 0.733520	 3.519257	-1.378229	 35.397820	-2.634230	 1.426357	 7.996073	 1.112038	-16.315070	-8.929637	-5.380679	 89.782170	 78.203870	 179.999900	 14.370180	 5.015453	-4.953076	-3.737525	-12.620100	 36.303160	-17.366130	 50.917220	 39.706210	 5.715225	 19.176060	-3.692089	 5.027514	 0.245388	-9.378011	-2.350882	 35.473990	 5.254307
-0.717161	-1.656839	 1.274079	-176.244400	 5.519919	-2.484090	-2.308496	-7.739973	-179.521100	 2.431807	-12.875530	 0.978706	-23.155810	 49.957060	 12.094960	-2.385833	 28.452760	 0.000004	 0.261634	-11.113210	-176.907600	-7.114749	-18.551420	 1.205964	 15.653220	 85.833600	-3.991771	 2.384659	 28.388700	-0.000001	-1.793752	 8.398666	 3.232798	-0.768516	-16.346070	-12.450820	-2.893180	-1.889570	 16.301410	-91.776210	 78.527380	-180.000000	-33.275690	 1.457988	 0.463057	-9.240150	-5.402823	-42.799980	 6.442684	-3.999625	-3.759707	-4.131196	 21.524690	 0.986298	-5.167839	 0.733520	 3.519257	-1.378229	 35.397820	-2.634230	 1.525438	 8.081693	 1.276618	-16.158240	-9.016326	-5.399199	 89.782140	 78.203920	 180.000000	 12.347820	 7.331496	-7.938697	-2.095613	-14.507530	 43.237570	-13.470990	 50.907350	 34.513510	 5.715225	 19.176060	-3.692089	 5.027514	 0.245388	-9.378011	-2.350882	 35.473990	 5.254307
-0.713996	-1.651828	 1.273165	-176.196900	 5.387269	-2.493016	-3.642911	-8.725877	 179.858300	 4.060985	-16.758630	 1.739676	-25.300330	 48.048660	 14.548770	-2.385833	 28.452760	 0.000004	 0.263624	-12.096340	-176.595800	-6.923077	-19.720100	 1.343929	 18.436450	 78.647020	-7.378502	 2.384659	 28.388700	-0.000001	-2.973719	 8.091281	 3.376068	-2.047913	-14.027010	-14.309790	-2.322603	-3.133483	 17.276560	-91.776200	 78.527400	 180.000000	-31.719010	 5.417094	 7.359245	-10.920300	-6.118445	-55.916000	 6.007674	-4.217413	-3.624153	-4.131196	 21.524690	 0.986298	-5.167839	 0.733520	 3.519257	-1.378229	 35.397820	-2.634230	 1.749748	 8.237408	 1.019506	-16.126300	-9.329284	-5.370914	 89.782160	 78.203900	 179.999900	 10.350200	 11.458720	-11.620780	 0.069962	-17.098450	 52.419560	-9.141020	 50.199940	 28.593190	 5.715225	 19.176060	-3.692089	 5.027514	 0.245388	-9.378011	-2.350882	 35.473990	 5.254307
-0.707998	-1.642619	 1.271366	-175.876100	 5.194450	-1.543408	-4.962875	-9.841854	 177.687100	 2.613364	-22.807990	 1.772967	-22.287890	 43.572300	 16.243840	-2.385833	 28.452760	 0.000004	-0.097089	-14.347660	-177.118300	-7.272761	-22.641990	 1.398108	 21.215690	 72.283700	-10.852400	 2.384659	 28.388700	-0.000001	-5.342632	 7.592830	 1.975950	-4.156965	-9.406546	-16.574410	-1.209176	-5.618175	 18.621230	-91.776250	 78.527380	-179.999900	-28.574330	 13.010740	 15.829180	-12.824260	-7.085712	-72.556610	 5.798632	-4.484787	-3.566878	-4.131196	 21.524690	 0.986298	-5.167839	 0.733520	 3.519257	-1.378229	 35.397820	-2.634230	 2.171104	 8.411708	 0.333191	-16.103630	-9.749578	-4.755210	 89.782100	 78.203890	 180.000000	 7.252879	 19.355900	-15.587520	 3.598734	-20.038890	 64.665130	-4.874283	 46.862000	 20.628320	 5.715225	 19.176060	-3.692089	 5.027514	 0.245388	-9.378011	-2.350882	 35.473990	 5.254307
